<?xml version="1.0" encoding="UTF-8"?>
<svg id="Layer_1" data-name="Layer 1" xmlns="http://www.w3.org/2000/svg" viewBox="0 0 1000 1000">
  <defs>
    <style>
      .cls-1 {
        fill: #0061e8;
      }

      .cls-2 {
        fill: #fff;
      }
    </style>
  </defs>
  <rect class="cls-1" width="1000" height="1000"/>
  <g>
    <path class="cls-2" d="M523.75,669.15l-47.51-30.72c-1.96-1.27-4.55.14-4.55,2.48v131.34c0,1.63,1.32,2.95,2.95,2.95h50.74c1.63,0,2.95-1.32,2.95-2.95v-94.69c0-3.39-1.72-6.56-4.57-8.4Z"/>
    <path class="cls-2" d="M385.31,581.08c-.49-2.29-3.32-3.12-4.97-1.47l-14.62,14.62-63.63,63.63-14.62,14.62c-1.15,1.15-1.15,3.02,0,4.17l35.88,35.88c1.15,1.15,3.02,1.15,4.17,0l14.62-14.62,37.72-37.72,14.62-14.62c2.4-2.4,3.42-5.85,2.71-9.17l-11.87-55.32Z"/>
    <path class="cls-2" d="M322.45,528.32c3.39,0,6.56-1.72,8.4-4.57l30.72-47.51c1.27-1.96-.14-4.55-2.48-4.55h-131.34c-1.63,0-2.95,1.32-2.95,2.95v50.74c0,1.63,1.32,2.95,2.95,2.95h94.69Z"/>
    <path class="cls-2" d="M342.14,302.09h0l-14.62-14.62c-1.15-1.15-3.02-1.15-4.17,0l-35.88,35.88c-1.15,1.15-1.15,3.02,0,4.17l14.62,14.62h0s52.34,52.34,52.34,52.34c2.4,2.4,5.85,3.42,9.17,2.71l55.32-11.87c2.29-.49,3.12-3.32,1.47-4.97l-78.25-78.25Z"/>
    <path class="cls-2" d="M528.32,248.44v-20.68c0-1.63-1.32-2.95-2.95-2.95h-50.74c-1.63,0-2.95,1.32-2.95,2.95v94.69s0,0,0,0v51.59c0,3.39,1.72,6.56,4.57,8.4l47.51,30.72c1.96,1.27,4.55-.14,4.55-2.48v-138.63s0,0,0,0v-23.62Z"/>
    <path class="cls-2" d="M614.69,418.92c.49,2.29,3.32,3.12,4.97,1.47l78.25-78.25h0l14.62-14.62c1.15-1.15,1.15-3.02,0-4.17l-35.88-35.88c-1.15-1.15-3.02-1.15-4.17,0l-14.62,14.62h0l-52.34,52.34c-2.4,2.4-3.42,5.85-2.71,9.17l11.87,55.32Z"/>
    <path class="cls-2" d="M772.24,471.68h-94.69c-3.39,0-6.56,1.72-8.4,4.57l-30.72,47.51c-1.27,1.96.14,4.55,2.48,4.55h131.34c1.63,0,2.95-1.32,2.95-2.95v-50.74c0-1.63-1.32-2.95-2.95-2.95Z"/>
    <path class="cls-2" d="M660.19,620.14h0l-14.62-14.62s0,0,0,0l-36.48-36.48c-2.4-2.4-5.85-3.42-9.17-2.71l-55.32,11.87c-2.29.49-3.12,3.32-1.47,4.97l98.03,98.03h0l16.7,16.7,14.62,14.62c1.15,1.15,3.02,1.15,4.17,0l35.88-35.88c1.15-1.15,1.15-3.02,0-4.17l-52.34-52.34Z"/>
  </g>
</svg>